<svg width="335" height="301" viewBox="0 0 335 301" fill="none" xmlns="http://www.w3.org/2000/svg">
<circle cx="143.992" cy="143.992" r="143.992" transform="translate(17.4746 12.9161)" fill="url(#paint0_radial)"/>
<path d="M89.3816 29.6027L74.4846 39.5362L49.6566 34.5694L34.7595 29.6027L14.897 34.5694L-2.05983e-06 29.6027L9.93098 9.73496H29.7935L49.2589 -6.86788e-08C64.2707 7.42542 77.8515 17.4484 89.3816 29.6027Z" transform="translate(144.793 28.2323) rotate(-13.9715)" fill="url(#net_paint1_linear)"/>
<path d="M122.849 14.4041L117.883 29.305L102.986 34.2718L88.089 59.1063L63.261 74.0072L28.5021 78.974V93.8749L38.433 103.808V123.676L23.5371 113.742L8.64011 103.808L2.05983e-07 77.8318C14.8717 42.3825 43.3001 14.3591 78.9528 5.15091e-08L93.0551 9.43733L122.849 14.4041Z" transform="translate(0.357422 59.3566) rotate(-13.9715)" fill="url(#net_paint2_linear)"/>
<path d="M104.278 44.7021L99.312 69.5366L79.4495 89.4043V104.305L59.587 119.206V144.04L44.6905 139.073L34.759 114.239V64.5698L9.93098 59.6031L-2.05983e-06 39.7354V24.8345L9.93098 14.9009L24.828 -3.2279e-06L34.759 19.8677H69.518L84.415 44.7021H104.278Z" transform="translate(54.2812 158.031) rotate(-13.9715)" fill="url(#net_paint3_linear)"/>
<path d="M115.698 9.0902C142.805 57.4629 139.717 117.11 107.753 162.418L94.346 149.007V129.14L84.415 109.272L74.484 89.4043V69.5366L59.587 59.6031L39.7245 64.5699L4.96549 49.6689L4.25698e-06 14.9009L14.897 1.03018e-06H44.6905L54.6215 14.9009L84.415 19.8677L114.208 9.93413L115.698 9.0902Z" transform="translate(151.92 77.4369) rotate(-13.9715)" fill="url(#net_paint4_linear)"/>
<path d="M35.2532 0C15.8145 1.34861e-09 -1.34829e-09 15.8109 0 35.245C1.67327e-09 59.3634 31.5482 94.7705 32.8914 96.266C34.153 97.6709 36.3557 97.6684 37.6151 96.266C38.9583 94.7705 70.5064 59.3634 70.5064 35.245C70.5061 15.8109 54.6918 -1.3486e-09 35.2532 0ZM35.2532 52.9778C25.4731 52.9778 17.5166 45.0229 17.5166 35.245C17.5166 25.4671 25.4733 17.5125 35.2532 17.5125C45.0331 17.5125 52.9896 25.4673 52.9896 35.2452C52.9896 45.0231 45.0331 52.9778 35.2532 52.9778Z" transform="translate(99.8984 122.15)" fill="#A5EB78"/>
<path d="M59.3739 34.2933C59.3739 46.0666 49.8207 55.6107 38.0364 55.6107C26.252 55.6107 16.6989 46.0666 16.6989 34.2933C16.6989 22.52 26.252 12.9758 38.0364 12.9758C49.8207 12.9758 59.3739 22.52 59.3739 34.2933Z" transform="translate(99.8984 122.15)" fill="#A5EB78"/>
<ellipse cx="16.9738" cy="16.7939" rx="16.9738" ry="16.7939" transform="translate(118.18 139.375)" fill="#7CD145"/>
<path d="M55.1142 0C24.7241 0 0 25.007 0 55.7447C0 93.891 49.3218 149.892 51.4217 152.258C53.3941 154.479 56.8378 154.476 58.8067 152.258C60.9066 149.892 110.228 93.891 110.228 55.7447C110.228 25.007 85.504 0 55.1142 0ZM55.1142 83.7914C39.8242 83.7914 27.3851 71.2097 27.3851 55.7447C27.3851 40.2796 39.8245 27.6983 55.1142 27.6983C70.4039 27.6983 82.8429 40.2799 82.8429 55.745C82.8429 71.21 70.4039 83.7914 55.1142 83.7914Z" transform="translate(224.029 0.998413)" fill="#A5EB78"/>
<path d="M92.8239 54.2394C92.8239 72.8604 77.8888 87.9557 59.4653 87.9557C41.0419 87.9557 26.1067 72.8604 26.1067 54.2394C26.1067 35.6183 41.0419 20.523 59.4653 20.523C77.8888 20.523 92.8239 35.6183 92.8239 54.2394Z" transform="translate(224.029 0.998413)" fill="#A5EB78"/>
<ellipse cx="26.5365" cy="26.5619" rx="26.5365" ry="26.5619" transform="translate(252.607 28.2412)" fill="#7CD145"/>
<path d="M29.7915 0C13.3644 0 0 13.3909 0 29.8504C0 50.2771 26.6604 80.2648 27.7955 81.5314C28.8617 82.7213 30.7231 82.7192 31.7874 81.5314C32.9225 80.2648 59.5829 50.2771 59.5829 29.8504C59.5826 13.3909 46.2184 0 29.7915 0ZM29.7915 44.8689C21.5266 44.8689 14.8028 38.1316 14.8028 29.8504C14.8028 21.5691 21.5267 14.832 29.7915 14.832C38.0562 14.832 44.78 21.5693 44.78 29.8505C44.78 38.1318 38.0562 44.8689 29.7915 44.8689Z" transform="translate(33.3633 25.8245)" fill="#A5EB78"/>
<path d="M50.1751 29.0443C50.1751 39.0156 42.102 47.0989 32.1434 47.0989C22.1848 47.0989 14.1117 39.0156 14.1117 29.0443C14.1117 19.073 22.1848 10.9897 32.1434 10.9897C42.102 10.9897 50.1751 19.073 50.1751 29.0443Z" transform="translate(33.3633 25.8245)" fill="#A5EB78"/>
<ellipse cx="14.344" cy="14.2234" rx="14.344" ry="14.2234" transform="translate(48.8125 40.4127)" fill="#7CD145"/>
<defs>
<radialGradient id="paint0_radial" cx="0.5" cy="0.5" r="0.5" gradientUnits="userSpaceOnUse" gradientTransform="translate(251.74 -150.447) scale(389.084) rotate(71.7038)">
<stop stop-color="#7ED8FF"/>
<stop offset="1" stop-color="#1A80F1"/>
</radialGradient>
<linearGradient id="net_paint1_linear" x2="1" gradientUnits="userSpaceOnUse" gradientTransform="matrix(47.803 -4.9914 11.2843 108.071 12.2342 -23.9276)">
<stop stop-color="#278BFA"/>
<stop offset="1" stop-color="#366FAE"/>
</linearGradient>
<linearGradient id="net_paint2_linear" x2="1" gradientUnits="userSpaceOnUse" gradientTransform="matrix(-66.2604 -23.6489 23.4906 -65.817 60.672 131.495)">
<stop stop-color="#2286F4"/>
<stop offset="1" stop-color="#366FAE"/>
</linearGradient>
<linearGradient id="net_paint3_linear" x2="1" gradientUnits="userSpaceOnUse" gradientTransform="matrix(-14.0858 110.084 -79.6953 -10.1974 81.7715 46.0938)">
<stop stop-color="#2080EA"/>
<stop offset="1" stop-color="#366FAE"/>
</linearGradient>
<linearGradient id="net_paint4_linear" x2="1" gradientUnits="userSpaceOnUse" gradientTransform="matrix(97.4509 130.671 -107.864 80.4421 76.573 -23.8161)">
<stop stop-color="#3193FF"/>
<stop offset="1" stop-color="#366FAE"/>
</linearGradient>
</defs>
</svg>
