<svg width="280" height="280" viewBox="0 0 280 280" fill="none" xmlns="http://www.w3.org/2000/svg">
<circle cx="140" cy="140" r="140" fill="#E3E5E9"/>
<path d="M59.3598 47.528C64.7024 42.4066 67.99 35.4411 67.99 27.6564C67.99 12.4968 55.4559 -1.17271e-06 40.2501 -1.17271e-06C25.0442 -1.17271e-06 12.5101 12.4964 12.5101 27.6564C12.5101 35.4411 15.7977 42.6113 20.9346 47.528C10.8661 52.8546 3.26317 62.2779 0.181254 73.9551C-0.640747 77.2328 1.41426 80.5105 4.70187 81.5351C7.98948 82.3547 11.2771 80.3058 12.3048 77.0281C15.3871 64.9415 25.8666 56.3373 38.1954 55.3127C39.0175 55.3127 39.6337 55.5174 40.4557 55.5174C41.0721 55.5174 41.8941 55.5174 42.5104 55.3127C57.5105 56.3369 69.4283 68.8337 69.4283 84.198V93.4166C69.4283 96.8994 72.0996 99.5623 75.5925 99.5623C79.0858 99.5623 81.7568 96.899 81.7568 93.4166V84.198C81.5518 68.2188 72.5106 54.4932 59.3598 47.528ZM24.8393 27.6564C24.8393 19.2572 31.8255 12.2917 40.2504 12.2917C48.675 12.2917 55.6616 19.2568 55.6616 27.6564C55.6616 35.4411 49.7027 41.9965 42.0997 42.816C41.4834 42.816 40.8667 42.816 40.2504 42.816C39.6341 42.816 39.0174 42.816 38.4011 42.816C30.7982 41.9969 24.8393 35.4411 24.8393 27.6564Z" transform="translate(155.244 76)" fill="#6FB0FC"/>
<path d="M81.1645 73.75C78.2879 62.0728 70.4797 52.8542 60.4111 47.528C65.7538 42.4066 69.0414 35.4411 69.0414 27.6564C69.0414 12.4968 56.5072 -1.17271e-06 41.3014 -1.17271e-06C26.0956 -1.17271e-06 13.5614 12.4964 13.5614 27.6564C13.5614 35.4411 16.849 42.6113 22.1917 47.528C9.04122 54.4932 0 68.2188 0 83.9933V93.212C0 96.6947 2.67131 99.3576 6.16422 99.3576C9.65713 99.3576 12.3284 96.6944 12.3284 93.212V83.9933C12.3284 68.8337 24.2463 56.3369 39.2464 55.108C39.8627 55.108 40.6847 55.3127 41.301 55.3127C42.123 55.3127 42.7393 55.3127 43.5613 55.108C55.8901 56.1323 66.164 64.5318 69.2463 76.6184C70.0683 79.8961 73.3559 81.9449 76.8492 81.1254C80.1372 80.3058 81.9865 77.0281 81.1645 73.75ZM25.8907 27.6564C25.8907 19.2572 32.8769 12.2917 41.3018 12.2917C49.7267 12.2917 56.7129 19.2568 56.7129 27.6564C56.7129 35.4411 50.754 41.9965 43.1511 42.816C42.5348 42.816 41.9181 42.816 41.3018 42.816C40.6855 42.816 40.0688 42.816 39.4525 42.816C31.8496 41.9969 25.8907 35.4411 25.8907 27.6564Z" transform="translate(42 76)" fill="#6FB0FC"/>
<path d="M60.4111 47.528C65.7538 42.4066 69.0414 35.4411 69.0414 27.6564C69.0414 12.4968 56.5072 1.53171e-06 41.3014 1.53171e-06C26.0956 1.53171e-06 13.5614 12.4964 13.5614 27.6564C13.5614 35.4411 16.849 42.6113 22.1917 47.528C9.04082 54.4932 -8.64188e-07 68.2188 -8.64188e-07 83.9933V93.212C-8.64188e-07 96.6947 2.67131 99.3576 6.16422 99.3576C9.65713 99.3576 12.3284 96.6944 12.3284 93.212V83.9933C12.3284 68.8337 24.2463 56.3369 39.2464 55.3127C39.8627 55.3127 40.6847 55.3127 41.301 55.3127C41.9173 55.3127 42.7393 55.3127 43.3556 55.3127C58.3557 56.3369 70.2736 68.8337 70.2736 83.9933V93.212C70.2736 96.6947 72.9449 99.3576 76.4378 99.3576C79.9307 99.3576 82.602 96.6944 82.602 93.212V83.9933C82.6028 68.2188 73.5616 54.4932 60.4111 47.528ZM25.8903 27.6564C25.8903 19.2572 32.8765 12.2917 41.3014 12.2917C49.7263 12.2917 56.7125 19.2568 56.7125 27.6564C56.7125 35.4411 50.7536 41.9965 43.1507 42.816C42.5344 42.816 41.9177 42.816 41.3014 42.816C40.6851 42.816 40.0684 42.816 39.4521 42.816C31.8492 41.9969 25.8903 35.4411 25.8903 27.6564Z" transform="translate(98.0957 98.6424)" fill="#1A80F1"/>
</svg>
