<svg width="323" height="323" viewBox="0 0 323 323" fill="none" xmlns="http://www.w3.org/2000/svg">
<path d="M306.467 127.594L283.796 123.748C281.434 116.123 278.398 108.769 274.687 101.751L288.046 83.061C293.714 75.099 292.837 64.2356 285.887 57.3533L265.78 37.2459C262.001 33.4673 257.008 31.3756 251.678 31.3756C247.495 31.3756 243.514 32.6576 240.14 35.0867L221.382 48.4466C214.095 44.6006 206.47 41.4293 198.576 39.0677L194.797 16.6662C193.178 7.01734 184.879 0 175.095 0H146.688C136.905 0 128.605 7.01734 126.986 16.6662L123.073 39.6075C115.515 41.9691 108.161 45.0729 101.143 48.8515L82.5882 35.4915C79.2145 33.0625 75.166 31.7805 70.9826 31.7805C65.6522 31.7805 60.5916 33.8722 56.8806 37.6507L36.7058 57.7581C29.8235 64.6405 28.8789 75.5039 34.5467 83.4659L48.0415 102.426C44.3304 109.511 41.3616 116.866 39.0674 124.49L16.6661 128.269C7.01729 129.888 0 138.188 0 147.971V176.378C0 186.162 7.01729 194.461 16.6661 196.081L39.6072 199.994C41.9688 207.551 45.0726 214.906 48.8512 221.923L35.5588 240.411C29.891 248.373 30.7681 259.237 37.718 266.119L57.8252 286.226C61.6037 290.005 66.5968 292.097 71.9273 292.097C76.1106 292.097 80.0916 290.815 83.4653 288.386L102.426 274.891C109.24 278.467 116.393 281.368 123.747 283.662L127.526 306.334C129.145 315.983 137.445 323 147.228 323H175.702C185.486 323 193.785 315.983 195.405 306.334L199.251 283.662C206.875 281.301 214.23 278.264 221.247 274.553L239.937 287.913C243.311 290.342 247.36 291.624 251.543 291.624C256.873 291.624 261.867 289.533 265.645 285.754L285.752 265.647C292.635 258.764 293.579 247.901 287.912 239.939L274.552 221.181C278.263 214.096 281.367 206.742 283.661 199.184L306.332 195.406C315.981 193.787 322.998 185.487 322.998 175.703V147.297C323.133 137.513 316.116 129.214 306.467 127.594Z" fill="url(#settings_paint0)"/>
<path fill-rule="evenodd" clip-rule="evenodd" d="M76.8166 153.633C119.241 153.633 153.633 119.241 153.633 76.8166C153.633 34.392 119.241 0 76.8166 0C34.392 0 0 34.392 0 76.8166C0 119.241 34.392 153.633 76.8166 153.633Z" transform="translate(85.1465 84.2206)" fill="url(#settings_paint1_linear)"/>
<defs>
<linearGradient id="settings_paint0" x2="1" gradientUnits="userSpaceOnUse" gradientTransform="translate(246.877 -77.2794) scale(340.451 340.452) rotate(66.9548)">
<stop stop-color="#BFC6D2"/>
<stop offset="1" stop-color="#878F9C"/>
</linearGradient>
<linearGradient id="settings_paint1_linear" x2="1" gradientUnits="userSpaceOnUse" gradientTransform="translate(110.089 -22.237) scale(160.093) rotate(74.1478)">
<stop stop-color="#2C6DB8"/>
<stop offset="0.0001" stop-color="#8A92A0"/>
<stop offset="1" stop-color="#283857"/>
</linearGradient>
</defs>
</svg>
