<svg width="309" height="309" viewBox="0 0 309 309" fill="none" xmlns="http://www.w3.org/2000/svg">
<path d="M291.426 131.666C286.67 128.16 280.678 123.78 279.953 120.918C280.258 115.378 281.839 109.985 284.574 105.158C288.766 95.5386 293.091 85.5698 288.282 77.2801C283.473 68.9903 272.537 67.647 262.018 66.5317C256.566 66.4951 251.195 65.2129 246.314 62.7832C243.88 57.8848 242.603 52.4933 242.579 47.0236C241.397 36.5038 240.174 25.6213 231.831 20.7575C223.489 15.8937 213.507 20.1529 203.889 24.3982C199.057 27.1321 193.66 28.7135 188.117 29.0202C185.215 28.2411 180.85 22.3023 177.37 17.5462C171.271 9.32386 164.406 -2.81519e-10 154.491 -2.81519e-10C144.577 -2.81519e-10 137.712 9.32386 131.653 17.5462C128.133 22.3156 123.767 28.2947 120.906 29.0334C115.368 28.6996 109.976 27.1201 105.134 24.4115C95.4616 20.1523 85.4937 15.9069 77.2317 20.6901C68.9698 25.4733 67.5863 36.4364 66.4037 47.023C66.3652 52.4737 65.0882 57.8445 62.6688 62.7291C57.7972 65.1241 52.4465 66.3824 47.0183 66.4101C36.4861 67.5922 25.5907 68.8152 20.7412 77.1585C15.8917 85.5018 20.1511 95.4718 24.3961 105.105C27.1398 109.947 28.7217 115.36 29.0176 120.918C28.2387 123.82 22.3004 128.2 17.5447 131.666C9.32305 137.712 0 144.591 0 154.507C0 164.422 9.32305 171.301 17.5586 177.347C22.3142 180.853 28.306 185.233 29.0315 188.095C28.7267 193.635 27.1448 199.028 24.41 203.855C20.2185 213.475 15.8929 223.443 20.7021 231.733C25.5113 240.023 36.4471 241.366 46.966 242.482C52.4181 242.518 57.7897 243.8 62.6707 246.23C65.1039 251.128 66.3816 256.52 66.4055 261.99C67.5875 272.509 68.8105 283.392 77.153 288.256C85.4956 293.12 95.3967 288.739 105.029 284.548C109.909 281.844 115.338 280.282 120.908 279.98C123.81 280.759 128.176 286.698 131.656 291.454C137.714 299.676 144.579 309 154.494 309C164.408 309 171.273 299.676 177.332 291.454C180.851 286.684 185.218 280.705 188.079 279.967C193.621 280.28 199.016 281.861 203.851 284.589C213.47 288.78 223.438 293.08 231.713 288.31C239.988 283.541 241.358 272.564 242.541 262.031C242.579 256.58 243.856 251.209 246.276 246.324C251.156 243.91 256.522 242.637 261.967 242.603C272.499 241.421 283.394 240.198 288.244 231.855C293.093 223.511 288.714 213.609 284.536 203.976C281.801 199.109 280.237 193.672 279.969 188.096C280.747 185.194 286.686 180.814 291.441 177.347C299.663 171.288 309 164.409 309 154.507C309 144.605 299.661 137.712 291.426 131.666Z" fill="#E3E5E9"/>
<path d="M100.8 50.4C100.8 22.5653 78.2347 -1.50204e-06 50.4 -1.50204e-06C22.5653 -1.50204e-06 0 22.5653 0 50.4C0 78.2347 22.5653 100.8 50.4 100.8C78.2347 100.8 100.8 78.2347 100.8 50.4Z" transform="translate(51 192) scale(1.25 -1.25)" fill="#FFCC4D"/>
<path d="M0.0423729 12.2611C0.168373 11.7598 3.31271 -7.20978e-07 21.0005 -7.20978e-07C38.6909 -7.20978e-07 41.8352 11.7601 41.9585 12.2611C42.1126 12.8687 41.8382 13.4987 41.2948 13.8123C40.7487 14.1231 40.0656 14.0305 39.6177 13.5967C39.5645 13.5435 34.1465 8.39992 21.0005 8.39992C7.85733 8.39992 2.43637 13.5435 2.38617 13.5967C2.11743 13.86 1.75888 13.9998 1.40056 13.9998C1.1653 13.9998 0.927326 13.941 0.711748 13.8206C0.162959 13.5073 -0.111436 12.8717 0.0423729 12.2611Z" transform="translate(87.748 164) scale(1.25 -1.25)" fill="#664500"/>
<path d="M13.9998 9.79995C13.9998 4.38465 10.8665 7.20978e-07 6.99989 7.20978e-07C3.13326 7.20978e-07 -9.01222e-07 4.3849 -9.01222e-07 9.79995C-9.01222e-07 15.2123 3.13326 19.5999 6.99989 19.5999C10.8665 19.5999 13.9998 15.2123 13.9998 9.79995Z" transform="translate(84.25 125.5) scale(1.25 -1.25)" fill="#664500"/>
<path d="M13.9998 9.79995C13.9998 4.38465 10.8665 7.20978e-07 6.99989 7.20978e-07C3.13326 7.20978e-07 2.70367e-07 4.3849 2.70367e-07 9.79995C2.70367e-07 15.2123 3.13326 19.5999 6.99989 19.5999C10.8665 19.5999 13.9998 15.2123 13.9998 9.79995Z" transform="translate(129.941 125.5) scale(1.25 -1.25)" fill="#664500"/>
<path d="M59.4971 107C-56.5805 43.3767 27.3703 -35.7223 59.4971 17.5494C91.6289 -35.7223 175.585 43.3767 59.4971 107Z" transform="translate(139 147)" fill="#B22121"/>
</svg>
